# xmcd
#
# Track frame offsets:
#	150
#	13094
#	29659
#	43899
#	58225
#	73155
#	88519
#	100217
#	114067
#	130634
#	149963
#	166104
#	179137
#
# Disc length: 2566 seconds
# Revision: 0
# Processed by: cddbd v1.5.2PL0 Copyright (c) Steve Scherf et al.
# Submitted via: dBpowerAMP V12.0
#
DISCID=c00a040d
DTITLE=Various Artist - The Highwaymen in Concert
DYEAR=2014
DGENRE=Country
TTITLE0=Johnny Cash - Get Rhythm
TTITLE1=Kris Kristofferson - Shipwrecked In The Eighties
TTITLE2=Willie Nelson - Blue Eyes Crying In The Rain
TTITLE3=Waylon Jennings - Are You Sure Hank Done It This Way
TTITLE4=The Highwaymen - Me And Bobby McGee
TTITLE5=Willie Nelson - Farther Down The Line
TTITLE6=Johnny Cash - Ragged Old Flag
TTITLE7=Kris Kristofferson - Help Me Make It Through The Night
TTITLE8=Waylon Jennings - I've Always Been Crazy
TTITLE9=The Highwaymen - Desperados Waiting For A Train
TTITLE10=Willie Nelson - Crazy
TTITLE11=The Highwaymen - Big River
TTITLE12=The Highwaymen - Highwayman
EXTD=
EXTT0=
EXTT1=
EXTT2=
EXTT3=
EXTT4=
EXTT5=
EXTT6=
EXTT7=
EXTT8=
EXTT9=
EXTT10=
EXTT11=
EXTT12=
PLAYORDER=
